<?xml version="1.0" encoding="utf-8"?>
<!-- Generator: Adobe Illustrator 21.0.2, SVG Export Plug-In . SVG Version: 6.00 Build 0)  -->
<svg version="1.1" id="Layer_1" xmlns="http://www.w3.org/2000/svg" xmlns:xlink="http://www.w3.org/1999/xlink" x="0px" y="0px"
	 viewBox="0 0 595.3 841.9" style="enable-background:new 0 0 595.3 841.9;" xml:space="preserve">
<style type="text/css">
	.st0{fill:#F2BC4C;}
	.st1{fill:#383A3C;}
	.st2{fill:#2AAADF;}
</style>
<g>
	<path class="st0" d="M171.2,401.9c6.8,0,13.7,0,20.5,0.1c0.5,0.2,1,0.4,1.5,0.4c18.9,1.6,36.7,6.7,53.2,15.9
		c38.7,21.6,62.4,54.2,70.6,97.8c0.9,4.6,1.4,9.3,2.1,14c0,7,0,14-0.1,21c-0.2,0.5-0.4,1-0.5,1.5c-1.7,19.1-7,37.2-16.5,53.9
		c-21.7,38-54.1,61.3-97.2,69.4c-4.6,0.9-9.3,1.4-14,2.1c-7,0-14,0-21-0.1c-0.6-0.2-1.1-0.4-1.7-0.5c-18.6-1.7-36.2-6.8-52.4-15.9
		C77,639.9,53.3,607.3,45,563.7c-0.8-4.5-1.4-9-2.1-13.5c0-7.2,0-14.4,0.1-21.6c0.2-0.6,0.4-1.1,0.5-1.7
		c1.7-18.6,6.8-36.2,15.9-52.4c21.6-38.7,54.2-62.4,97.8-70.6C161.8,403,166.5,402.5,171.2,401.9z M216.2,471.5L216.2,471.5
		c0.4-1.3,0.7-2.8,1.1-4.6c-6.3,4-11.1,8.9-15.3,14.4c-8.8,11.5-14.5,24.7-19.8,38.1c-0.4,0.9-0.8,1.9-1.3,3.1
		c-0.9-0.8-1.5-1.4-2.1-1.9c-5.2-4.9-10.6-9.6-17.1-13c-16.4-8.7-33.5-16.1-50.8-22.8c-2.1-0.8-4.1-1.5-6.6-2.5
		c0,7.2,3.3,12.5,7.7,17c4.4,4.5,9.4,8.3,14.2,12.5c-1.3-0.1-2.6-0.4-3.9-0.4c-3.2,0-6.4,0-9.6,0.3c-2.3,0.2-3.1,1.5-2.2,3.9
		c3.2,8.9,10,13.8,18.6,16.4c2.6,0.8,5.2,1.2,7.2,1.7c-4.2,1.9-9,3.8-13.4,6.2c-3.6,1.9-3.5,2.8-0.6,5.8c4.2,4.4,9.7,6.5,15.5,7.4
		c3.9,0.6,7.9,0.7,12.1,1c-4.3,2.7-7.3,6.2-8.4,11c-0.3,1.3,0,3.1,0.8,4.2c2.9,4.1,6.9,6.6,12.1,7.5c-24.4,22.6-49.7,24.6-76.2,3.1
		c0.5,1,0.9,1.7,1.3,2.4c17.8,29,44,43.8,77.8,45.1c27.4,1,52.5-6.9,75-22.4c18.5-12.7,32.6-29.2,39.5-51c1.1-3.5,2.6-4.9,6.2-5.3
		c5.6-0.6,11.5-5,13.1-8.9c-11.1,0.2-12.3,0-15.6-3.5c9.5,0.9,15.4-3.4,19.3-11.5c-9,2-14.2,2.1-19.9,0.1c-1-0.4-2.2-1.6-2.4-2.6
		c-1.6-6.6-3.9-12.9-7.7-18.6c-8.4-12.6-19.4-21.3-34.9-23.2c-1.6-0.2-3.2-0.2-4.8-0.3c3-1.4,6-2.2,9-3.1c2.4-0.8,4.7-1.7,6.8-3
		c0.9-0.5,1.4-2.2,1.3-3.3c0-0.6-1.7-1.3-2.7-1.6c-0.8-0.2-1.8-0.1-2.7,0.1c-2.8,0.7-5.6,1.4-8.3,2.1c-0.1-0.1-0.2-0.2-0.3-0.3
		c1.4-1.6,2.7-3.3,4.1-4.9C225.9,465.9,221,468.7,216.2,471.5z"/>
	<path class="st1" d="M228.1,471.2c2.8-0.7,5.5-1.5,8.3-2.1c0.9-0.2,1.8-0.4,2.7-0.2c1,0.3,2.6,0.9,2.7,1.5c0.1,1.1-0.5,2.8-1.3,3.3
		c-2.1,1.3-4.5,2.2-6.8,3c-3,1-6,1.7-9,3.2c1.6,0.1,3.2,0.1,4.8,0.3c15.5,1.9,26.6,10.5,35,23.1c3.8,5.7,6.1,12,7.7,18.5
		c0.3,1,1.4,2.3,2.4,2.6c5.8,2,10.9,1.8,19.9-0.2c-3.8,8-9.8,12.4-19.2,11.5c3.4,3.5,4.5,3.7,15.7,3.5c-1.6,4-7.4,8.3-13.1,9
		c-3.6,0.4-5.1,1.8-6.2,5.4c-6.8,21.8-20.8,38.3-39.3,51.1c-22.5,15.6-47.5,23.6-75,22.6c-33.7-1.2-60-15.8-77.9-44.8
		c-0.4-0.7-0.9-1.3-1.3-2.4c26.5,21.4,51.8,19.4,76.2-3.3c-5.1-0.9-9.2-3.3-12.1-7.5c-0.8-1.1-1.1-2.9-0.8-4.2c1.1-4.8,4-8.3,8.3-11
		c-4.2-0.3-8.2-0.3-12.1-0.9c-5.9-0.9-11.3-3-15.6-7.4c-2.9-3-3-3.9,0.6-5.8c4.4-2.4,9.2-4.3,13.4-6.2c-2-0.4-4.6-0.9-7.2-1.7
		c-8.6-2.7-15.4-7.5-18.7-16.4c-0.9-2.5-0.1-3.7,2.2-3.9c3.2-0.3,6.4-0.3,9.6-0.4c1.3,0,2.7,0.2,3.9,0.3c-4.8-4.2-9.8-8-14.2-12.5
		c-4.4-4.5-7.7-9.8-7.8-17c2.5,0.9,4.6,1.7,6.6,2.5c17.4,6.6,34.4,14,50.9,22.6c6.4,3.4,11.9,8,17.1,13c0.6,0.5,1.2,1.1,2.1,1.9
		c0.5-1.2,0.9-2.1,1.3-3.1c5.2-13.4,10.9-26.6,19.7-38.1c4.2-5.5,9-10.4,15.3-14.4c-0.4,1.9-0.7,3.3-1,4.7c-0.1,0-0.2-0.1-0.4-0.1
		c0,0.1,0,0.2,0,0.2c0.1-0.1,0.2-0.2,0.3-0.2c4.8-2.9,9.6-5.7,15.9-5.5c-1.4,1.6-2.7,3.3-4.1,4.9c-0.3,0.1-0.6,0.1-0.9,0.2
		c0,0.1,0,0.2,0.1,0.3C227.4,471.3,227.8,471.2,228.1,471.2z"/>
	<path class="st2" d="M228.1,471.2c-0.4,0.1-0.7,0.1-1.1,0.2c0-0.1,0-0.2-0.1-0.3c0.3-0.1,0.6-0.1,0.9-0.2
		C228,470.9,228,471.1,228.1,471.2z"/>
	<path class="st2" d="M216,471.4c-0.1,0.1-0.2,0.2-0.3,0.2c0-0.1,0-0.2,0-0.2C215.8,471.4,215.9,471.5,216,471.4
		C216.1,471.5,216,471.4,216,471.4z"/>
</g>
</svg>
